<svg width="533.2800048828125px" height="124.439990234375px" xmlns="http://www.w3.org/2000/svg" viewBox="-16.64000244140624 12.780004882812499 533.2800048828125 124.439990234375" style="background: rgba(0, 0, 0, 0) none repeat scroll 0% 0%;" preserveAspectRatio="xMidYMid"><defs><filter id="editing-vr"><feFlood flood-color="#f00" flood-opacity="0.7" result="c1"></feFlood><feFlood flood-color="#00f" flood-opacity="0.7" result="c3"></feFlood><feComposite operator="in" in="c1" in2="SourceAlpha" result="text-c1"></feComposite><feComposite operator="in" in="c3" in2="SourceAlpha" result="text-c3"></feComposite><feOffset in="text-c1" dx="5" dy="-1" result="text1"></feOffset><feOffset in="text-c3" dx="-5" dy="1" result="text3"></feOffset><feBlend in="SourceGraphic" in2="text1" mode="multiply" result="text4"></feBlend><feBlend in="text4" in2="text3" mode="multiply"></feBlend></filter></defs><g filter="url(#editing-vr)"><g transform="translate(62.669921875, 99)"><path d="M34.50-13.25L34.50-13.25L34.50-13.25Q36.16-12.03 36.16-9.44L36.16-9.44L36.16-9.44Q36.16-6.85 35.04-5.02L35.04-5.02L35.04-5.02Q33.92-3.20 31.74-1.79L31.74-1.79L31.74-1.79Q27.07 1.22 18.91 1.22L18.91 1.22L18.91 1.22Q10.75 1.22 6.30-3.04L6.30-3.04L6.30-3.04Q1.86-7.30 1.86-14.85L1.86-14.85L1.86-14.85Q1.86-25.54 7.42-33.66L7.42-33.66L7.42-33.66Q11.65-39.68 19.20-42.24L19.20-42.24L19.20-42.24Q23.10-43.52 26.94-43.52L26.94-43.52L26.94-43.52Q30.78-43.52 33.15-43.01L33.15-43.01L33.15-43.01Q35.52-42.50 37.31-41.47L37.31-41.47L37.31-41.47Q41.22-39.23 41.22-35.65L41.22-35.65L41.22-35.65Q41.22-32.38 38.14-29.95L38.14-29.95L38.14-29.95Q35.33-27.78 33.02-27.78L33.02-27.78L33.02-27.78Q30.72-27.78 29.76-28.10L29.76-28.10L29.76-28.10Q30.02-30.40 30.02-31.90L30.02-31.90L30.02-31.90Q30.02-33.41 29.95-34.50L29.95-34.50L29.95-34.50Q29.89-35.58 29.57-36.61L29.57-36.61L29.57-36.61Q28.93-38.98 26.98-38.98L26.98-38.98L26.98-38.98Q25.02-38.98 23.07-37.15L23.07-37.15L23.07-37.15Q21.12-35.33 19.46-32.26L19.46-32.26L19.46-32.26Q15.68-25.28 15.68-17.02L15.68-17.02L15.68-17.02Q15.68-13.06 17.92-10.78L17.92-10.78L17.92-10.78Q20.16-8.51 24.96-8.51L24.96-8.51L24.96-8.51Q28.54-8.51 31.94-10.88L31.94-10.88L31.94-10.88Q33.41-11.90 34.50-13.25ZM73.66-7.10L73.66-7.10L73.66-7.10Q73.66-4.29 76.54-3.46L76.54-3.46L76.54-3.46Q75.84-1.09 73.09 0.19L73.09 0.19L73.09 0.19Q70.78 1.28 68.26 1.28L68.26 1.28L68.26 1.28Q65.73 1.28 64.42 0.61L64.42 0.61L64.42 0.61Q63.10-0.06 62.40-1.15L62.40-1.15L62.40-1.15Q61.25-2.82 61.25-5.95L61.25-5.95L61.25-5.95Q61.25-7.81 62.27-12.93L62.27-12.93L63.17-17.79L63.17-17.79Q64.26-23.36 64.26-25.41L64.26-25.41L64.26-25.41Q64.26-28.99 62.27-28.99L62.27-28.99L62.27-28.99Q59.78-28.99 58.18-25.34L58.18-25.34L58.18-25.34Q57.54-23.94 57.09-21.82L57.09-21.82L52.74 0L39.87 1.28L48.90-44.80L61.76-46.08L61.25-43.52L61.25-43.52Q59.46-33.66 57.92-30.34L57.92-30.34L57.92-30.34Q61.50-33.92 68.10-33.92L68.10-33.92L68.10-33.92Q75.07-33.92 76.35-29.31L76.35-29.31L76.35-29.31Q76.80-27.84 76.80-26.56L76.80-26.56L76.80-26.56Q76.80-25.28 76.70-24.29L76.70-24.29L76.70-24.29Q76.61-23.30 76.29-21.50L76.29-21.50L75.46-16.90L73.98-9.66L73.98-9.66Q73.66-8.19 73.66-7.10ZM102.27-2.69L102.27-2.69L102.27-2.69Q99.20 1.28 91.58 1.28L91.58 1.28L91.58 1.28Q87.62 1.28 84.74-1.12L84.74-1.12L84.74-1.12Q81.86-3.52 81.86-6.98L81.86-6.98L81.86-6.98Q81.86-8.90 82.05-9.86L82.05-9.86L86.34-32.64L99.33-33.92L94.66-9.22L94.66-9.22Q94.40-7.81 94.40-6.98L94.40-6.98L94.40-6.98Q94.40-3.26 96.64-3.26L96.64-3.26L96.64-3.26Q99.14-3.26 100.93-6.66L100.93-6.66L100.93-6.66Q101.50-7.74 101.76-9.15L101.76-9.15L106.30-32.64L118.91-33.92L114.18-8.96L114.18-8.96Q113.98-8 113.98-6.98L113.98-6.98L113.98-6.98Q113.98-5.95 114.56-4.83L114.56-4.83L114.56-4.83Q115.14-3.71 116.99-3.46L116.99-3.46L116.99-3.46Q116.61-1.92 115.26-0.90L115.26-0.90L115.26-0.90Q112.45 1.28 109.41 1.28L109.41 1.28L109.41 1.28Q106.37 1.28 104.58 0.19L104.58 0.19L104.58 0.19Q102.78-0.90 102.27-2.69ZM153.54-26.62L153.54-26.62L153.54-26.62Q153.54-23.94 151.30-22.27L151.30-22.27L151.30-22.27Q149.06-20.61 145.41-20.61L145.41-20.61L145.41-20.61Q143.87-20.61 142.98-21.06L142.98-21.06L142.98-21.06Q143.68-22.72 143.90-24.80L143.90-24.80L143.90-24.80Q144.13-26.88 144.13-27.46L144.13-27.46L144.13-27.46Q144.13-30.14 142.27-30.14L142.27-30.14L142.27-30.14Q140.99-30.14 139.55-28.54L139.55-28.54L139.55-28.54Q138.11-26.94 136.90-24.45L136.90-24.45L136.90-24.45Q134.21-18.69 134.21-12.86L134.21-12.86L134.21-12.86Q134.21-9.66 135.42-8.22L135.42-8.22L135.42-8.22Q136.64-6.78 139.33-6.78L139.33-6.78L139.33-6.78Q143.04-6.78 145.98-9.86L145.98-9.86L145.98-9.86Q146.82-10.82 147.26-11.90L147.26-11.90L147.26-11.90Q149.70-10.62 149.70-7.10L149.70-7.10L149.70-7.10Q149.70-3.52 145.73-1.15L145.73-1.15L145.73-1.15Q141.63 1.28 135.10 1.28L135.10 1.28L135.10 1.28Q122.11 1.28 122.11-12.48L122.11-12.48L122.11-12.48Q122.11-22.53 127.81-28.29L127.81-28.29L127.81-28.29Q133.31-33.92 143.42-33.92L143.42-33.92L143.42-33.92Q153.54-33.92 153.54-26.62ZM171.78-30.34L171.78-30.34L171.78-30.34Q175.23-33.92 182.53-33.92L182.53-33.92L182.53-33.92Q186.56-33.92 188.77-31.78L188.77-31.78L188.77-31.78Q190.98-29.63 190.98-25.70L190.98-25.70L190.98-25.70Q190.98-21.76 188.77-18.98L188.77-18.98L188.77-18.98Q186.56-16.19 182.46-15.04L182.46-15.04L182.46-15.04Q182.78-13.76 183.23-12.42L183.23-12.42L184.13-9.86L184.13-9.86Q185.34-6.59 186.30-5.44L186.30-5.44L186.30-5.44Q187.26-4.29 188.54-3.90L188.54-3.90L188.54-3.90Q187.84-1.28 185.28 0.13L185.28 0.13L185.28 0.13Q183.23 1.28 180.42 1.28L180.42 1.28L180.42 1.28Q172.16 1.28 171.07-11.46L171.07-11.46L171.07-11.46Q170.88-13.25 170.88-15.04L170.88-15.04L170.88-15.04Q174.08-15.94 176.32-18.94L176.32-18.94L176.32-18.94Q178.56-21.95 178.56-25.47L178.56-25.47L178.56-25.47Q178.56-28.99 176.06-28.99L176.06-28.99L176.06-28.99Q174.27-28.99 172.86-27.01L172.86-27.01L172.86-27.01Q171.46-25.02 170.82-21.63L170.82-21.63L166.59 0L153.66 1.28L162.62-44.80L175.49-46.08L174.02-38.46L174.02-38.46Q173.06-33.09 171.78-30.34ZM213.70 0L206.66 0L214.34-42.24L228.10-42.24L238.08-13.18L243.39-42.24L250.50-42.18L242.69 0L228.03 0L218.82-27.97L213.70 0ZM266.05 1.28L266.05 1.28L266.05 1.28Q251.97 1.28 251.97-11.97L251.97-11.97L251.97-11.97Q251.97-21.38 257.15-27.46L257.15-27.46L257.15-27.46Q262.66-33.92 272.19-33.92L272.19-33.92L272.19-33.92Q279.10-33.92 282.62-30.72L282.62-30.72L282.62-30.72Q286.14-27.52 286.14-20.80L286.14-20.80L286.14-20.80Q286.14-10.56 280.64-4.61L280.64-4.61L280.64-4.61Q275.26 1.28 266.05 1.28ZM267.71-26.56L267.71-26.56L267.71-26.56Q266.94-24.83 266.34-22.24L266.34-22.24L266.34-22.24Q265.73-19.65 264.96-15.55L264.96-15.55L264.96-15.55Q264.19-11.46 264.19-6.40L264.19-6.40L264.19-6.40Q264.19-4.74 264.74-3.65L264.74-3.65L264.74-3.65Q265.28-2.56 266.75-2.56L266.75-2.56L266.75-2.56Q268.22-2.56 269.15-3.26L269.15-3.26L269.15-3.26Q270.08-3.97 270.78-5.63L270.78-5.63L270.78-5.63Q272.06-8.58 273.09-14.05L273.09-14.05L273.09-14.05Q274.11-19.52 274.21-21.89L274.21-21.89L274.21-21.89Q274.30-24.26 274.30-26.02L274.30-26.02L274.30-26.02Q274.30-27.78 273.79-28.93L273.79-28.93L273.79-28.93Q273.28-30.08 271.84-30.08L271.84-30.08L271.84-30.08Q270.40-30.08 269.44-29.18L269.44-29.18L269.44-29.18Q268.48-28.29 267.71-26.56ZM309.95-17.98L309.95-17.98L309.95-17.98Q312.26-22.08 312.26-26.24L312.26-26.24L312.26-26.24Q312.26-28.99 310.27-28.99L310.27-28.99L310.27-28.99Q308.74-28.99 307.14-26.37L307.14-26.37L307.14-26.37Q305.47-23.74 304.96-20.35L304.96-20.35L301.63 0L288.38 1.28L294.91-32.64L305.47-33.92L304.32-27.46L304.32-27.46Q307.46-33.92 314.50-33.92L314.50-33.92L314.50-33.92Q318.21-33.92 320.22-32L320.22-32L320.22-32Q322.24-30.08 322.24-26.14L322.24-26.14L322.24-26.14Q322.24-22.21 319.65-19.71L319.65-19.71L319.65-19.71Q317.06-17.22 312.64-17.22L312.64-17.22L312.64-17.22Q310.72-17.22 309.95-17.98ZM338.62-3.52L338.62-3.52L338.62-3.52Q336.64 1.28 330.30 1.28L330.30 1.28L330.30 1.28Q327.04 1.28 324.99-0.96L324.99-0.96L324.99-0.96Q323.26-2.94 323.26-4.93L323.26-4.93L323.26-4.93Q323.26-10.11 325.63-20.22L325.63-20.22L328-32.64L340.99-33.92L337.09-13.70L337.09-13.70Q336-8.96 336-7.30L336-7.30L336-7.30Q336-3.65 338.62-3.52ZM329.15-41.54L329.15-41.54L329.15-41.54Q329.15-44.03 331.23-45.38L331.23-45.38L331.23-45.38Q333.31-46.72 336.32-46.72L336.32-46.72L336.32-46.72Q339.33-46.72 341.15-45.38L341.15-45.38L341.15-45.38Q342.98-44.03 342.98-41.54L342.98-41.54L342.98-41.54Q342.98-39.04 340.96-37.76L340.96-37.76L340.96-37.76Q338.94-36.48 335.94-36.48L335.94-36.48L335.94-36.48Q332.93-36.48 331.04-37.76L331.04-37.76L331.04-37.76Q329.15-39.04 329.15-41.54ZM363.20-22.46L363.20-22.46L363.20-22.46Q364.10-24.83 364.10-26.88L364.10-26.88L364.10-26.88Q364.10-30.66 361.02-30.66L361.02-30.66L361.02-30.66Q359.42-30.66 358.11-29.22L358.11-29.22L358.11-29.22Q356.80-27.78 356.80-25.98L356.80-25.98L356.80-25.98Q356.80-24.70 357.82-23.68L357.82-23.68L357.82-23.68Q359.30-22.27 363.07-19.97L363.07-19.97L363.07-19.97Q366.85-17.66 368.29-15.78L368.29-15.78L368.29-15.78Q369.73-13.89 369.73-11.30L369.73-11.30L369.73-11.30Q369.73-8.70 368.48-6.34L368.48-6.34L368.48-6.34Q367.23-3.97 364.99-2.30L364.99-2.30L364.99-2.30Q360.19 1.28 352.51 1.28L352.51 1.28L352.51 1.28Q348.35 1.28 345.15-0.90L345.15-0.90L345.15-0.90Q341.95-3.01 341.95-5.50L341.95-5.50L341.95-5.50Q341.95-8 343.78-9.47L343.78-9.47L343.78-9.47Q345.60-10.94 348.29-10.94L348.29-10.94L348.29-10.94Q350.98-10.94 352.64-9.92L352.64-9.92L352.64-9.92Q351.81-7.81 351.81-6.40L351.81-6.40L351.81-6.40Q351.81-2.18 355.39-2.18L355.39-2.18L355.39-2.18Q356.93-2.18 357.95-3.14L357.95-3.14L357.95-3.14Q358.98-4.10 358.98-5.76L358.98-5.76L358.98-5.76Q358.98-9.02 353.47-12.48L353.47-12.48L353.47-12.48Q348.99-15.42 347.97-16.58L347.97-16.58L347.97-16.58Q346.24-18.62 346.24-21.18L346.24-21.18L346.24-21.18Q346.24-23.74 347.46-26.18L347.46-26.18L347.46-26.18Q348.67-28.61 350.91-30.34L350.91-30.34L350.91-30.34Q355.58-33.92 363.71-33.92L363.71-33.92L363.71-33.92Q367.87-33.92 370.34-32.26L370.34-32.26L370.34-32.26Q372.80-30.59 372.80-27.78L372.80-27.78L372.80-27.78Q372.80-24.96 371.10-23.36L371.10-23.36L371.10-23.36Q369.41-21.76 366.34-21.76L366.34-21.76L366.34-21.76Q364.22-21.76 363.20-22.46Z" fill="#444"></path></g></g><style>text {
  font-size: 64px;
  font-family: Arial Black;
  dominant-baseline: central;
  text-anchor: middle;
}</style></svg>